<svg width="142" height="87" viewBox="0 0 142 87" fill="none" xmlns="http://www.w3.org/2000/svg">
<g filter="url(#filter0_d_16_11)">
<path d="M38.326 32.408C37.986 32.2267 37.7253 31.9773 37.544 31.66C37.3627 31.3427 37.272 30.8553 37.272 30.198C37.272 29.722 37.3967 29.2233 37.646 28.702C37.918 28.158 38.224 27.6367 38.564 27.138C38.9267 26.6167 39.2327 26.152 39.482 25.744C40.3433 24.3387 41.216 22.9107 42.1 21.46C43.0067 20.0093 43.8113 18.604 44.514 17.244C45.2167 15.8613 45.704 14.6033 45.976 13.47C46.0213 13.4473 46.112 13.436 46.248 13.436C46.656 13.436 47.0753 13.64 47.506 14.048C47.9593 14.4333 48.2087 14.8187 48.254 15.204C48.254 15.272 48.254 15.34 48.254 15.408C48.2767 15.476 48.288 15.5553 48.288 15.646C48.288 16.2127 48.1973 16.904 48.016 17.72C47.8347 18.536 47.6307 19.3973 47.404 20.304C47.2 21.2107 47.0187 22.106 46.86 22.99C46.7013 23.9193 46.5427 24.8147 46.384 25.676C46.248 26.5373 46.1233 27.2627 46.01 27.852C46.554 27.1493 47.1773 26.3333 47.88 25.404C48.5827 24.452 49.3193 23.4547 50.09 22.412C50.8607 21.3693 51.62 20.3493 52.368 19.352C53.116 18.332 53.796 17.4027 54.408 16.564C55.0427 15.7027 55.5527 14.9887 55.938 14.422C56.346 13.8553 56.584 13.5153 56.652 13.402C57.06 13.402 57.4793 13.5153 57.91 13.742C58.3407 13.9687 58.556 14.3087 58.556 14.762C58.556 14.8527 58.522 15.0227 58.454 15.272C58.386 15.5213 58.1367 16.054 57.706 16.87C57.0033 18.3207 56.2667 19.794 55.496 21.29C54.7253 22.786 54.0227 24.3047 53.388 25.846C53.116 26.526 52.8327 27.2287 52.538 27.954C52.266 28.6567 51.994 29.4047 51.722 30.198C51.5633 30.674 51.4613 31.0933 51.416 31.456C51.3933 31.8187 51.3707 32.102 51.348 32.306C50.872 32.0567 50.5207 31.7167 50.294 31.286C50.09 30.8327 49.988 30.334 49.988 29.79C49.988 29.0647 50.192 28.2033 50.6 27.206C51.008 26.2087 51.5067 25.166 52.096 24.078C52.708 22.9673 53.3087 21.8907 53.898 20.848C54.51 19.7827 55.02 18.8193 55.428 17.958C55.836 17.0967 56.04 16.4053 56.04 15.884C56.04 15.884 55.8927 16.088 55.598 16.496C55.3033 16.904 54.9293 17.414 54.476 18.026C54.0227 18.638 53.558 19.2727 53.082 19.93C52.606 20.5873 52.1753 21.1653 51.79 21.664C51.4273 22.1627 51.178 22.5027 51.042 22.684C50.0673 24.0213 49.1607 25.2453 48.322 26.356C47.506 27.444 46.8827 28.396 46.452 29.212C46.2253 29.688 46.0667 30.1187 45.976 30.504C45.908 30.8667 45.874 31.1953 45.874 31.49C45.3073 31.49 44.922 31.2407 44.718 30.742C44.514 30.2433 44.412 29.6767 44.412 29.042C44.412 28.6567 44.4347 28.2713 44.48 27.886C44.5253 27.478 44.5707 27.1267 44.616 26.832C44.7747 25.8573 44.9787 24.7467 45.228 23.5C45.4773 22.2307 45.7267 20.984 45.976 19.76C46.248 18.5133 46.452 17.4593 46.588 16.598C46.384 17.1873 46.1007 17.8447 45.738 18.57C45.3753 19.2727 44.99 19.9867 44.582 20.712C44.1967 21.4147 43.8227 22.0607 43.46 22.65C43.0973 23.2393 42.814 23.6927 42.61 24.01C42.1793 24.6447 41.726 25.3813 41.25 26.22C40.7967 27.036 40.366 27.8407 39.958 28.634C39.5273 29.45 39.1533 30.2093 38.836 30.912C38.5413 31.592 38.3713 32.0907 38.326 32.408ZM57.8694 32.136C57.1214 32.136 56.6 31.9547 56.3054 31.592C56.0107 31.2293 55.8634 30.7873 55.8634 30.266C55.8634 29.586 56.022 28.8607 56.3394 28.09C56.6794 27.3193 56.974 26.7187 57.2234 26.288C57.8354 25.3133 58.5607 24.384 59.3994 23.5C60.238 22.616 61.122 21.902 62.0514 21.358C63.0034 20.7913 63.91 20.508 64.7714 20.508C65.2247 20.508 65.6667 20.5873 66.0974 20.746C66.528 20.882 66.9474 21.12 67.3554 21.46C67.5594 21.6187 67.6954 21.7773 67.7634 21.936C67.854 22.072 67.8994 22.1967 67.8994 22.31C67.8994 22.65 67.752 22.82 67.4574 22.82C67.2534 22.82 67.106 22.684 67.0154 22.412C66.7207 21.6413 66.2447 21.256 65.5874 21.256C65.0207 21.256 64.3747 21.5167 63.6494 22.038C62.924 22.5593 62.21 23.1827 61.5074 23.908C60.7367 24.724 60.034 25.608 59.3994 26.56C58.7647 27.4893 58.2887 28.3393 57.9714 29.11C57.8127 29.45 57.6994 29.756 57.6314 30.028C57.586 30.2773 57.5634 30.4927 57.5634 30.674C57.5634 31.082 57.7334 31.286 58.0734 31.286C58.4587 31.286 59.0254 31.0027 59.7734 30.436C60.3174 30.0053 60.8727 29.484 61.4394 28.872C62.0287 28.26 62.5727 27.6593 63.0714 27.07C63.57 26.458 63.9667 25.982 64.2614 25.642C64.3747 25.4607 64.4767 25.2907 64.5674 25.132C64.6807 24.9733 64.7827 24.8373 64.8734 24.724C64.964 24.6107 65.1114 24.52 65.3154 24.452C65.542 24.384 65.7687 24.35 65.9954 24.35C66.2674 24.35 66.494 24.3953 66.6754 24.486C66.8567 24.5767 66.8907 24.7353 66.7774 24.962C66.7774 24.9847 66.6527 25.2227 66.4034 25.676C66.154 26.1067 65.8594 26.628 65.5194 27.24C65.202 27.852 64.9187 28.4413 64.6694 29.008C64.5334 29.3253 64.42 29.62 64.3294 29.892C64.2387 30.164 64.1934 30.3907 64.1934 30.572C64.1934 30.8667 64.3067 31.014 64.5334 31.014C64.692 31.014 64.93 30.9233 65.2474 30.742C65.746 30.4927 66.2447 30.13 66.7434 29.654C67.2647 29.178 67.7407 28.6907 68.1714 28.192C68.4207 27.9427 68.6474 27.7047 68.8514 27.478C69.0554 27.2513 69.248 27.0133 69.4294 26.764C69.4974 26.696 69.554 26.662 69.5994 26.662C69.7354 26.662 69.8034 26.764 69.8034 26.968C69.8034 27.0813 69.758 27.1833 69.6674 27.274C69.418 27.5687 69.1687 27.8747 68.9194 28.192C68.67 28.4867 68.4094 28.7813 68.1374 29.076C67.888 29.3707 67.6274 29.6653 67.3554 29.96C67.106 30.232 66.8454 30.4927 66.5734 30.742C65.5987 31.6487 64.7034 32.102 63.8874 32.102C63.5247 32.102 63.2187 31.9773 62.9694 31.728C62.72 31.456 62.5954 31.0367 62.5954 30.47C62.5954 30.0393 62.6747 29.552 62.8334 29.008C62.8787 28.7587 62.9467 28.5093 63.0374 28.26C63.1507 28.0107 63.2527 27.75 63.3434 27.478C62.89 28.2033 62.3687 28.9287 61.7794 29.654C61.2127 30.3567 60.6007 30.946 59.9434 31.422C59.286 31.898 58.5947 32.136 57.8694 32.136ZM72.4965 32.782C71.6352 32.782 70.7285 32.4307 69.7765 31.728C69.3685 31.4333 69.0172 31.0253 68.7225 30.504C68.5639 30.232 68.4845 29.9373 68.4845 29.62C68.4845 29.2573 68.6092 29.076 68.8585 29.076C68.9719 29.076 69.1079 29.178 69.2665 29.382C69.4479 29.5633 69.6065 29.8013 69.7425 30.096C69.9465 30.5493 70.1619 30.946 70.3885 31.286C70.6152 31.6033 70.9779 31.762 71.4765 31.762C71.9299 31.762 72.3039 31.5013 72.5985 30.98C72.8932 30.4587 73.1199 29.79 73.2785 28.974C73.4599 28.158 73.5845 27.2967 73.6525 26.39C73.7432 25.4833 73.7999 24.656 73.8225 23.908C73.8452 23.1373 73.8679 22.548 73.8905 22.14C72.8252 23.432 71.8165 24.656 70.8645 25.812C69.9352 26.9453 69.0512 28.0107 68.2125 29.008C68.1219 29.1213 68.0425 29.178 67.9745 29.178C67.9065 29.178 67.8725 29.11 67.8725 28.974C67.8725 28.7247 67.9292 28.5207 68.0425 28.362C68.4959 27.818 68.9945 27.2173 69.5385 26.56C70.0825 25.88 70.6265 25.2 71.1705 24.52C71.7372 23.84 72.2359 23.2393 72.6665 22.718C73.1199 22.174 73.4485 21.766 73.6525 21.494C73.6525 20.814 73.8112 20.2813 74.1285 19.896C74.4459 19.488 74.8312 19.1933 75.2845 19.012C75.7379 18.8307 76.1685 18.74 76.5765 18.74C76.9619 18.74 77.2452 18.7853 77.4265 18.876C77.5852 18.944 77.6645 19.0233 77.6645 19.114C77.6645 19.182 77.5512 19.25 77.3245 19.318C76.7805 19.454 76.3952 19.7487 76.1685 20.202C75.9419 20.6327 75.7945 21.1653 75.7265 21.8C75.6812 22.412 75.6585 23.0693 75.6585 23.772C75.6585 24.8147 75.6132 25.914 75.5225 27.07C75.4319 28.226 75.2845 29.2007 75.0805 29.994C75.0352 30.1527 74.9672 30.3227 74.8765 30.504C74.8085 30.6853 74.7405 30.8667 74.6725 31.048C75.3072 30.5947 75.9305 30.1073 76.5425 29.586C77.1545 29.042 77.6305 28.5887 77.9705 28.226C78.2199 27.9767 78.4352 27.7387 78.6165 27.512C78.8205 27.2627 79.0245 27.0133 79.2285 26.764C79.2739 26.696 79.3305 26.662 79.3985 26.662C79.5345 26.662 79.6025 26.7527 79.6025 26.934C79.6025 27.0473 79.5459 27.1607 79.4325 27.274C78.9565 27.8407 78.4692 28.4413 77.9705 29.076C77.4945 29.7107 76.9619 30.266 76.3725 30.742C76.1232 30.946 75.8059 31.2067 75.4205 31.524C75.0352 31.8413 74.6499 32.102 74.2645 32.306C73.6299 32.6233 73.0405 32.782 72.4965 32.782ZM80.1827 32.102C79.684 32.102 79.2647 31.9547 78.9247 31.66C78.5847 31.3653 78.4147 30.8667 78.4147 30.164C78.4147 29.9827 78.426 29.8013 78.4487 29.62C78.4713 29.4387 78.5053 29.246 78.5507 29.042C78.732 28.1353 79.106 27.036 79.6727 25.744C80.2393 24.4293 80.9647 22.9447 81.8487 21.29H80.5567C80.3073 21.29 80.1827 21.222 80.1827 21.086C80.1827 21.018 80.2393 20.95 80.3527 20.882C80.4887 20.7913 80.67 20.746 80.8967 20.746H82.1207C82.506 20.0887 82.812 19.5787 83.0387 19.216C83.288 18.8307 83.492 18.536 83.6507 18.332C84.24 17.584 84.7727 17.0627 85.2487 16.768C85.7473 16.4507 86.178 16.2693 86.5407 16.224C86.9033 16.1787 87.164 16.156 87.3227 16.156C87.0053 16.496 86.654 16.938 86.2687 17.482C85.8833 18.026 85.5093 18.5927 85.1467 19.182C84.784 19.7487 84.478 20.27 84.2287 20.746H87.6967C87.946 20.746 88.0707 20.8027 88.0707 20.916C88.0707 21.0067 88.0027 21.0973 87.8667 21.188C87.7307 21.256 87.5493 21.29 87.3227 21.29H83.8887C83.526 21.9473 83.1973 22.5367 82.9027 23.058C82.6307 23.5567 82.3473 24.0893 82.0527 24.656C81.7807 25.2227 81.4407 25.9253 81.0327 26.764C80.7153 27.4667 80.4773 28.0673 80.3187 28.566C80.1827 29.0647 80.1147 29.484 80.1147 29.824C80.1147 30.2547 80.2053 30.5607 80.3867 30.742C80.568 30.9233 80.7947 31.014 81.0667 31.014C81.3387 31.014 81.656 30.9233 82.0187 30.742C82.5173 30.4927 83.016 30.13 83.5147 29.654C84.0133 29.178 84.4893 28.6907 84.9427 28.192C85.1693 27.9427 85.3847 27.7047 85.5887 27.478C85.7927 27.2513 85.9853 27.0133 86.1667 26.764C86.2347 26.696 86.2913 26.662 86.3367 26.662C86.4727 26.662 86.5407 26.7527 86.5407 26.934C86.5407 27.07 86.4953 27.1833 86.4047 27.274C85.9287 27.8633 85.43 28.464 84.9087 29.076C84.2967 29.7787 83.6167 30.4587 82.8687 31.116C82.1207 31.7733 81.2253 32.102 80.1827 32.102ZM88.3113 32.51C87.4726 32.51 86.804 32.272 86.3053 31.796C85.8066 31.2973 85.5573 30.606 85.5573 29.722C85.5573 29.042 85.682 28.328 85.9313 27.58C86.2033 26.832 86.464 26.2427 86.7133 25.812C87.2346 24.86 87.858 23.9873 88.5833 23.194C89.3313 22.4007 90.0906 21.766 90.8613 21.29C91.6546 20.7913 92.38 20.542 93.0373 20.542C93.6493 20.542 94.1706 20.712 94.6013 21.052C95.0546 21.392 95.2813 21.8453 95.2813 22.412C95.2813 22.6387 95.2246 22.8993 95.1113 23.194C94.998 23.4887 94.8166 23.7947 94.5673 24.112C93.6606 25.268 92.652 26.1747 91.5413 26.832C90.4533 27.4667 89.2066 27.9427 87.8013 28.26C87.7106 28.5547 87.6313 28.8493 87.5633 29.144C87.4953 29.416 87.4386 29.6767 87.3933 29.926C87.3706 30.0393 87.348 30.1527 87.3253 30.266C87.3253 30.3567 87.3253 30.4587 87.3253 30.572C87.3253 31.0253 87.4273 31.354 87.6313 31.558C87.858 31.7393 88.13 31.83 88.4473 31.83C88.946 31.83 89.4786 31.7053 90.0453 31.456C90.612 31.184 91.1446 30.878 91.6433 30.538C92.142 30.198 92.516 29.926 92.7653 29.722C93.0146 29.4953 93.2526 29.2687 93.4793 29.042C93.7286 28.7927 94.0006 28.5207 94.2953 28.226C94.522 27.9767 94.7373 27.7387 94.9413 27.512C95.1453 27.2627 95.338 27.0133 95.5193 26.764C95.5873 26.696 95.644 26.662 95.6893 26.662C95.8253 26.662 95.8933 26.764 95.8933 26.968C95.8933 27.0813 95.848 27.1833 95.7573 27.274C95.3493 27.7727 94.9413 28.2713 94.5333 28.77C94.1253 29.246 93.706 29.7107 93.2753 30.164C92.7766 30.6853 92.0853 31.2067 91.2013 31.728C90.34 32.2493 89.3766 32.51 88.3113 32.51ZM88.0053 27.818C88.5946 27.5687 89.2746 27.206 90.0453 26.73C90.8386 26.254 91.598 25.6873 92.3233 25.03C93.0713 24.35 93.6833 23.6247 94.1593 22.854C94.318 22.6047 94.3973 22.378 94.3973 22.174C94.3973 21.8567 94.216 21.698 93.8533 21.698C93.604 21.698 93.298 21.7887 92.9353 21.97C91.802 22.582 90.8273 23.4093 90.0113 24.452C89.1953 25.4947 88.5266 26.6167 88.0053 27.818ZM99.649 32.17C99.2183 32.17 98.8557 32.0227 98.561 31.728C98.2663 31.4333 98.119 31.014 98.119 30.47C98.119 30.2207 98.1417 29.994 98.187 29.79C98.2323 29.5633 98.289 29.3707 98.357 29.212C98.4703 28.872 98.6857 28.43 99.003 27.886C99.3203 27.342 99.6717 26.7753 100.057 26.186C100.442 25.574 100.771 25.03 101.043 24.554C101.383 23.9647 101.553 23.4547 101.553 23.024C101.553 22.548 101.349 22.174 100.941 21.902C100.782 21.7887 100.624 21.6867 100.465 21.596C100.306 21.4827 100.17 21.3807 100.057 21.29L99.105 22.82C98.561 23.568 97.9943 24.3387 97.405 25.132C96.8157 25.9253 96.249 26.662 95.705 27.342C95.161 27.9993 94.6963 28.5547 94.311 29.008C94.243 29.076 94.175 29.11 94.107 29.11C93.9937 29.11 93.903 29.0533 93.835 28.94C93.767 28.8267 93.7783 28.7247 93.869 28.634C94.753 27.6367 95.603 26.6167 96.419 25.574C97.235 24.5313 97.9943 23.4207 98.697 22.242L99.513 20.848C99.4223 20.78 99.275 20.6327 99.071 20.406C98.8897 20.1793 98.7083 19.93 98.527 19.658C98.3683 19.3633 98.289 19.114 98.289 18.91C98.289 18.7287 98.3457 18.5927 98.459 18.502C98.595 18.3887 98.8217 18.332 99.139 18.332C99.9097 18.332 100.284 19.1593 100.261 20.814C100.578 21.0633 100.93 21.256 101.315 21.392C101.7 21.528 102.063 21.664 102.403 21.8C102.766 21.9133 103.06 22.0833 103.287 22.31C103.514 22.5367 103.627 22.8767 103.627 23.33C103.627 23.7153 103.514 24.1687 103.287 24.69C103.083 25.1887 102.834 25.6307 102.539 26.016C102.29 26.356 101.995 26.764 101.655 27.24C101.338 27.716 101.032 28.192 100.737 28.668C100.442 29.144 100.227 29.5747 100.091 29.96C99.9777 30.2547 99.921 30.47 99.921 30.606C99.921 30.9007 100.057 31.048 100.329 31.048C100.578 31.048 100.884 30.946 101.247 30.742C101.723 30.4927 102.21 30.1413 102.709 29.688C103.23 29.212 103.706 28.7247 104.137 28.226C104.386 27.9767 104.613 27.7387 104.817 27.512C105.021 27.2627 105.214 27.0133 105.395 26.764C105.463 26.696 105.52 26.662 105.565 26.662C105.701 26.662 105.769 26.764 105.769 26.968C105.769 27.0813 105.724 27.1833 105.633 27.274C105.157 27.8407 104.67 28.4413 104.171 29.076C103.672 29.688 103.14 30.2433 102.573 30.742C102.233 31.014 101.791 31.32 101.247 31.66C100.703 32 100.17 32.17 99.649 32.17Z" fill="#FC9918"/>
</g>
<g filter="url(#filter1_d_16_11)">
<path d="M17.4141 70.4102C14.7839 70.4102 12.5052 69.8047 10.5781 68.5938C8.65104 67.3698 7.16667 65.6771 6.125 63.5156C5.08333 61.3542 4.5625 58.8542 4.5625 56.0156V55.5469C4.5625 52.6823 5.08333 50.1758 6.125 48.0273C7.17969 45.8659 8.61849 44.1797 10.4414 42.9688C12.2643 41.7578 14.3346 41.1523 16.6523 41.1523C18.8659 41.1523 20.7409 41.4062 22.2773 41.9141C23.8268 42.4219 25.1484 43.1055 26.2422 43.9648V49.707H23.0781L22.668 45.5859C22.0299 45.1693 21.2487 44.8568 20.3242 44.6484C19.3997 44.4271 18.306 44.3164 17.043 44.3164C15.4154 44.3164 13.9505 44.7852 12.6484 45.7227C11.3464 46.6602 10.3177 47.9688 9.5625 49.6484C8.80729 51.3151 8.42969 53.2682 8.42969 55.5078V56.0156C8.42969 58.2812 8.77474 60.2604 9.46484 61.9531C10.168 63.6328 11.1901 64.9414 12.5312 65.8789C13.8724 66.8034 15.5 67.2656 17.4141 67.2656C18.7161 67.2656 19.8164 67.1549 20.7148 66.9336C21.6133 66.6992 22.4076 66.3997 23.0977 66.0352V59.3555L17.6484 59.1602V56.3281H26.9453V67.3438C26.125 68.112 24.9466 68.8151 23.4102 69.4531C21.8867 70.0911 19.888 70.4102 17.4141 70.4102ZM38.1562 70.4102C35.9557 70.4102 34.2826 69.8763 33.1367 68.8086C31.9909 67.7279 31.418 66.2109 31.418 64.2578C31.418 62.9167 31.7826 61.7513 32.5117 60.7617C33.2539 59.7591 34.3216 58.9844 35.7148 58.4375C37.1081 57.8776 38.7747 57.5977 40.7148 57.5977H44.4844V55.5273C44.4844 54.2513 44.0938 53.2617 43.3125 52.5586C42.5443 51.8555 41.457 51.5039 40.0508 51.5039C39.1654 51.5039 38.3971 51.6146 37.7461 51.8359C37.0951 52.0443 36.5026 52.3372 35.9688 52.7148L35.5586 55.6641H32.5898V50.8203C33.5404 50.0521 34.6471 49.4727 35.9102 49.082C37.1732 48.6784 38.5729 48.4766 40.1094 48.4766C42.6745 48.4766 44.6862 49.0885 46.1445 50.3125C47.6029 51.5365 48.332 53.2878 48.332 55.5664V65.7422C48.332 66.0156 48.332 66.2826 48.332 66.543C48.3451 66.8034 48.3646 67.0638 48.3906 67.3242L50.4414 67.5391V70H44.9141C44.7969 69.4271 44.7057 68.9128 44.6406 68.457C44.5755 68.0013 44.5299 67.5456 44.5039 67.0898C43.7617 68.0404 42.8307 68.8346 41.7109 69.4727C40.6042 70.0977 39.4193 70.4102 38.1562 70.4102ZM38.7227 67.1875C39.9987 67.1875 41.1641 66.8815 42.2188 66.2695C43.2734 65.6576 44.0286 64.9219 44.4844 64.0625V60.2344H40.5781C38.8073 60.2344 37.4792 60.6576 36.5938 61.5039C35.7083 62.3503 35.2656 63.2943 35.2656 64.3359C35.2656 65.2604 35.5521 65.9701 36.125 66.4648C36.6979 66.9466 37.5638 67.1875 38.7227 67.1875ZM53.2344 70V67.5391L56.418 66.9922V42.5586L53.2344 42.0117V39.5312H60.2656V66.9922L63.4492 67.5391V70H53.2344ZM66.0078 70V67.5391L69.1914 66.9922V42.5586L66.0078 42.0117V39.5312H73.0391V66.9922L76.2227 67.5391V70H66.0078ZM88.2148 70.4102C86.2617 70.4102 84.5625 69.9674 83.1172 69.082C81.6719 68.1836 80.5521 66.9401 79.7578 65.3516C78.9766 63.763 78.5859 61.9271 78.5859 59.8438V58.9844C78.5859 56.9792 78.9961 55.1888 79.8164 53.6133C80.6497 52.0247 81.75 50.7747 83.1172 49.8633C84.4974 48.9388 86.0013 48.4766 87.6289 48.4766C89.5299 48.4766 91.1185 48.8672 92.3945 49.6484C93.6836 50.4297 94.6536 51.5299 95.3047 52.9492C95.9557 54.3555 96.2812 56.0156 96.2812 57.9297V60.332H82.5703L82.5117 60.4297C82.5378 61.7839 82.7721 62.9883 83.2148 64.043C83.6706 65.0846 84.3216 65.9049 85.168 66.5039C86.0143 67.1029 87.0299 67.4023 88.2148 67.4023C89.5169 67.4023 90.6562 67.2201 91.6328 66.8555C92.6224 66.4779 93.4753 65.9635 94.1914 65.3125L95.6953 67.8125C94.9401 68.5417 93.9375 69.1602 92.6875 69.668C91.4505 70.1628 89.9596 70.4102 88.2148 70.4102ZM82.6875 57.3242H92.4336V56.8164C92.4336 55.8008 92.2513 54.8958 91.8867 54.1016C91.5352 53.2943 91.0013 52.6628 90.2852 52.207C89.582 51.7383 88.6966 51.5039 87.6289 51.5039C86.7695 51.5039 85.9883 51.7578 85.2852 52.2656C84.582 52.7604 84.0026 53.4375 83.5469 54.2969C83.0911 55.1562 82.7917 56.1328 82.6484 57.2266L82.6875 57.3242ZM99.25 70V67.5391L102.434 66.9922V51.8945L99.25 51.3477V48.8672H105.871L106.203 51.5625L106.242 51.9336C106.841 50.8529 107.577 50.0065 108.449 49.3945C109.335 48.7826 110.344 48.4766 111.477 48.4766C111.88 48.4766 112.29 48.5156 112.707 48.5938C113.137 48.6589 113.443 48.724 113.625 48.7891L113.117 52.3633L110.441 52.207C109.426 52.1419 108.573 52.3763 107.883 52.9102C107.193 53.431 106.659 54.1341 106.281 55.0195V66.9922L109.465 67.5391V70H99.25ZM120.91 78.5352C120.611 78.5352 120.22 78.4961 119.738 78.418C119.257 78.3529 118.885 78.2878 118.625 78.2227L119.016 75.1953C119.237 75.2214 119.543 75.2409 119.934 75.2539C120.324 75.2799 120.591 75.293 120.734 75.293C121.555 75.293 122.219 74.9805 122.727 74.3555C123.247 73.7305 123.729 72.8776 124.172 71.7969L125.09 69.5703L117.609 51.6602L115.344 51.3477V48.8672H124.211V51.3477L121.652 51.7383L125.773 62.3047L126.77 65.0586H126.887L131.77 51.7383L129.074 51.3477V48.8672H137.766V51.3477L135.578 51.6602L127.258 73.2422C126.867 74.2578 126.392 75.1628 125.832 75.957C125.285 76.7643 124.608 77.3958 123.801 77.8516C123.007 78.3073 122.043 78.5352 120.91 78.5352Z" fill="#FC9918"/>
</g>
<defs>
<filter id="filter0_d_16_11" x="33.272" y="13.402" width="76.497" height="27.38" filterUnits="userSpaceOnUse" color-interpolation-filters="sRGB">
<feFlood flood-opacity="0" result="BackgroundImageFix"/>
<feColorMatrix in="SourceAlpha" type="matrix" values="0 0 0 0 0 0 0 0 0 0 0 0 0 0 0 0 0 0 127 0" result="hardAlpha"/>
<feOffset dy="4"/>
<feGaussianBlur stdDeviation="2"/>
<feComposite in2="hardAlpha" operator="out"/>
<feColorMatrix type="matrix" values="0 0 0 0 0 0 0 0 0 0 0 0 0 0 0 0 0 0 0.25 0"/>
<feBlend mode="normal" in2="BackgroundImageFix" result="effect1_dropShadow_16_11"/>
<feBlend mode="normal" in="SourceGraphic" in2="effect1_dropShadow_16_11" result="shape"/>
</filter>
<filter id="filter1_d_16_11" x="0.5625" y="39.5312" width="141.203" height="47.0039" filterUnits="userSpaceOnUse" color-interpolation-filters="sRGB">
<feFlood flood-opacity="0" result="BackgroundImageFix"/>
<feColorMatrix in="SourceAlpha" type="matrix" values="0 0 0 0 0 0 0 0 0 0 0 0 0 0 0 0 0 0 127 0" result="hardAlpha"/>
<feOffset dy="4"/>
<feGaussianBlur stdDeviation="2"/>
<feComposite in2="hardAlpha" operator="out"/>
<feColorMatrix type="matrix" values="0 0 0 0 0 0 0 0 0 0 0 0 0 0 0 0 0 0 0.25 0"/>
<feBlend mode="normal" in2="BackgroundImageFix" result="effect1_dropShadow_16_11"/>
<feBlend mode="normal" in="SourceGraphic" in2="effect1_dropShadow_16_11" result="shape"/>
</filter>
</defs>
</svg>

